<svg width="215" height="37" viewBox="0 0 215 37" fill="none" xmlns="http://www.w3.org/2000/svg">
<path d="M71.9589 5.26691H58.5087L62.0039 0.0651855H98.1372L94.642 5.26691H81.2096L68.0536 24.8654H58.8074L71.9589 5.26691Z" fill="#164194"/>
<path d="M101.931 0.0651855H111.177L101.641 13.9671C101.142 14.6789 100.695 15.4168 100.304 16.1767C100.008 16.7022 99.84 17.2738 99.8088 17.8569C99.7966 18.1273 99.8707 18.3955 100.023 18.6322C100.176 18.8689 100.401 19.0651 100.674 19.1995C101.247 19.5064 102.206 19.6599 103.549 19.6599H107.869C108.928 19.6722 109.986 19.6132 111.034 19.4834C111.818 19.3876 112.574 19.1664 113.263 18.8313C113.928 18.4896 114.519 18.0523 115.011 17.5385C115.647 16.8729 116.218 16.1634 116.719 15.4172L127.418 0.0728535H136.669L125.033 16.7675C124.076 18.1706 122.983 19.5014 121.765 20.7455C120.79 21.7415 119.623 22.585 118.315 23.2389C117 23.8738 115.567 24.3048 114.079 24.5125C112.238 24.7681 110.376 24.8874 108.511 24.8693H99.0108C96.3002 24.8693 94.1499 24.4319 92.5598 23.5573C90.9698 22.6827 90.1703 21.372 90.1613 19.6253C90.184 18.7095 90.3782 17.8027 90.7365 16.9401C91.2093 15.8033 91.8064 14.7077 92.5197 13.6679L101.931 0.0651855Z" fill="#164194"/>
<path d="M179.182 0.0651855H188.432L181.652 10.1809L201.615 0.0651855H214.027L191.419 11.3471L202.204 24.8654H192.213L184.447 14.8533L175.531 19.2763L171.786 24.8654H162.575L179.182 0.0651855Z" fill="#164194"/>
<path d="M13.4413 11.6808H0L3.49519 6.48291H39.6062L36.1154 11.6808H22.692L9.53597 31.2755H0.289783L13.4413 11.6808Z" fill="#164194"/>
<path d="M51.193 10.0466L52.8024 12.847L56.3912 13.2958L53.7921 15.4747L54.4073 18.5474L51.193 17.0973L47.9831 18.5474L48.5984 15.4747L45.9993 13.2958L49.5881 12.847L51.193 10.0466Z" fill="#E30613"/>
<path d="M31.5635 5.19789H18.1222L21.6129 0H57.7462L54.251 5.19789H40.8097L27.6581 24.7926H18.4075L31.5635 5.19789Z" fill="#164194"/>
<path d="M167.889 1.26971C166.258 0.466689 163.948 0.0651855 160.961 0.0651855H141.43L124.828 24.8654H134.007L147.19 5.27075H158.536C159.12 5.229 159.705 5.33289 160.221 5.56996C160.379 5.66085 160.508 5.78506 160.595 5.93076C160.681 6.07647 160.723 6.23883 160.716 6.40238C160.703 6.73141 160.618 7.05541 160.466 7.35756C160.27 7.75626 160.038 8.14105 159.771 8.50839L158.817 9.90473C158.495 10.3787 158.101 10.8135 157.644 11.1975C157.258 11.5116 156.803 11.7578 156.307 11.9225C155.734 12.1001 155.132 12.201 154.524 12.2217C153.851 12.2601 153.048 12.2754 152.121 12.2754H147.85C146.958 12.2754 146.209 12.2984 145.567 12.3483L144.845 12.4097L141.475 17.5577C142.076 17.5003 142.68 17.4734 143.285 17.4771H147.672L151.96 24.8654H161.322L156.864 17.1933C158.067 17.0558 159.251 16.8181 160.4 16.4836C161.356 16.2028 162.273 15.8296 163.132 15.3711C163.928 14.9434 164.647 14.4188 165.268 13.8137C165.922 13.1717 166.507 12.4796 167.016 11.746L168.54 9.48275C169.744 7.71304 170.346 6.16839 170.346 4.84878C170.374 4.11304 170.158 3.38565 169.722 2.7518C169.287 2.11795 168.652 1.60385 167.889 1.26971Z" fill="#164194"/>
<path d="M94.0734 31.9422C94.9314 32.0862 95.3604 32.6022 95.3604 33.4902C95.3604 34.0962 95.1594 34.5432 94.7574 34.8312C94.3554 35.1192 93.8424 35.2632 93.2184 35.2632H90.5184V28.9632H93.1284C93.7164 28.9632 94.1874 29.0952 94.5414 29.3592C94.8954 29.6172 95.0724 30.0072 95.0724 30.5292C95.0724 31.2432 94.7394 31.7082 94.0734 31.9242V31.9422ZM92.9664 30.2322H91.9134V31.4652H92.9574C93.1734 31.4652 93.3444 31.4112 93.4704 31.3032C93.6024 31.1892 93.6684 31.0332 93.6684 30.8352C93.6684 30.6492 93.6024 30.5022 93.4704 30.3942C93.3444 30.2862 93.1764 30.2322 92.9664 30.2322ZM93.0114 33.9942C93.2874 33.9942 93.5064 33.9372 93.6684 33.8232C93.8304 33.7032 93.9114 33.5322 93.9114 33.3102C93.9114 32.8542 93.6084 32.6262 93.0024 32.6262H91.9134V33.9942H93.0114ZM101.444 28.9632V32.7162C101.444 33.5502 101.216 34.2042 100.76 34.6782C100.304 35.1462 99.6414 35.3802 98.7714 35.3802C97.8954 35.3802 97.2294 35.1462 96.7734 34.6782C96.3174 34.2042 96.0894 33.5502 96.0894 32.7162V28.9632H97.5744V32.5902C97.5744 32.9982 97.6764 33.3252 97.8804 33.5712C98.0904 33.8172 98.3874 33.9402 98.7714 33.9402C99.1554 33.9402 99.4494 33.8172 99.6534 33.5712C99.8634 33.3252 99.9684 32.9982 99.9684 32.5902V28.9632H101.444ZM107.792 28.9632L105.524 32.9862V35.2632H104.129V33.0042L101.861 28.9632H103.535L104.813 31.6002H104.831L106.118 28.9632H107.792ZM116.491 31.6182C116.497 31.6902 116.5 31.7982 116.5 31.9422C116.5 32.9802 116.239 33.8172 115.717 34.4532C115.201 35.0832 114.433 35.3982 113.413 35.3982C112.423 35.3982 111.619 35.1012 111.001 34.5072C110.383 33.9072 110.074 33.1032 110.074 32.0952C110.074 31.1112 110.38 30.3222 110.992 29.7282C111.61 29.1282 112.45 28.8282 113.512 28.8282C114.454 28.8282 115.282 29.1042 115.996 29.6562L115.087 30.8532C114.571 30.4632 114.034 30.2682 113.476 30.2682C112.894 30.2682 112.438 30.4392 112.108 30.7812C111.778 31.1232 111.613 31.5642 111.613 32.1042C111.613 32.6562 111.781 33.1032 112.117 33.4452C112.453 33.7872 112.918 33.9582 113.512 33.9582C113.98 33.9582 114.337 33.8502 114.583 33.6342C114.835 33.4182 114.982 33.1632 115.024 32.8692H113.404V31.6182H116.491ZM117.778 29.7462C118.414 29.1342 119.206 28.8282 120.154 28.8282C121.102 28.8282 121.891 29.1342 122.521 29.7462C123.157 30.3522 123.475 31.1412 123.475 32.1132C123.475 33.0852 123.157 33.8772 122.521 34.4892C121.891 35.0952 121.102 35.3982 120.154 35.3982C119.206 35.3982 118.414 35.0952 117.778 34.4892C117.148 33.8772 116.833 33.0852 116.833 32.1132C116.833 31.1412 117.148 30.3522 117.778 29.7462ZM121.432 30.7722C121.096 30.4362 120.67 30.2682 120.154 30.2682C119.638 30.2682 119.212 30.4362 118.876 30.7722C118.54 31.1082 118.372 31.5552 118.372 32.1132C118.372 32.6712 118.54 33.1182 118.876 33.4542C119.212 33.7902 119.638 33.9582 120.154 33.9582C120.67 33.9582 121.096 33.7902 121.432 33.4542C121.768 33.1182 121.936 32.6712 121.936 32.1132C121.936 31.5552 121.768 31.1082 121.432 30.7722ZM124.801 29.7462C125.437 29.1342 126.229 28.8282 127.177 28.8282C128.125 28.8282 128.914 29.1342 129.544 29.7462C130.18 30.3522 130.498 31.1412 130.498 32.1132C130.498 33.0852 130.18 33.8772 129.544 34.4892C128.914 35.0952 128.125 35.3982 127.177 35.3982C126.229 35.3982 125.437 35.0952 124.801 34.4892C124.171 33.8772 123.856 33.0852 123.856 32.1132C123.856 31.1412 124.171 30.3522 124.801 29.7462ZM128.455 30.7722C128.119 30.4362 127.693 30.2682 127.177 30.2682C126.661 30.2682 126.235 30.4362 125.899 30.7722C125.563 31.1082 125.395 31.5552 125.395 32.1132C125.395 32.6712 125.563 33.1182 125.899 33.4542C126.235 33.7902 126.661 33.9582 127.177 33.9582C127.693 33.9582 128.119 33.7902 128.455 33.4542C128.791 33.1182 128.959 32.6712 128.959 32.1132C128.959 31.5552 128.791 31.1082 128.455 30.7722ZM133.245 28.9632C134.253 28.9632 135.072 29.2482 135.702 29.8182C136.332 30.3822 136.647 31.1472 136.647 32.1132C136.647 33.0792 136.332 33.8472 135.702 34.4172C135.072 34.9812 134.253 35.2632 133.245 35.2632H131.238V28.9632H133.245ZM133.362 30.2322H132.633V33.9942H133.362C133.884 33.9942 134.31 33.8292 134.64 33.4992C134.976 33.1632 135.144 32.7012 135.144 32.1132C135.144 31.5252 134.976 31.0662 134.64 30.7362C134.31 30.4002 133.884 30.2322 133.362 30.2322ZM137.683 29.2782C138.025 28.9782 138.523 28.8282 139.177 28.8282C139.831 28.8282 140.512 28.9812 141.22 29.2872L140.635 30.5202C140.071 30.2562 139.597 30.1242 139.213 30.1242C138.829 30.1242 138.637 30.2472 138.637 30.4932C138.637 30.5892 138.67 30.6762 138.736 30.7542C138.808 30.8262 138.934 30.9162 139.114 31.0242L140.158 31.6812C140.56 31.9272 140.86 32.1912 141.058 32.4732C141.256 32.7552 141.355 33.1062 141.355 33.5262C141.355 34.1322 141.157 34.5972 140.761 34.9212C140.365 35.2392 139.798 35.3982 139.06 35.3982C138.214 35.3982 137.431 35.1882 136.711 34.7682L137.341 33.5172C137.971 33.9012 138.562 34.0932 139.114 34.0932C139.63 34.0932 139.888 33.9252 139.888 33.5892C139.888 33.4572 139.84 33.3432 139.744 33.2472C139.648 33.1512 139.498 33.0402 139.294 32.9142L138.331 32.3112C137.557 31.8492 137.17 31.2492 137.17 30.5112C137.17 29.9892 137.341 29.5782 137.683 29.2782ZM148.489 30.2682H145.861V31.5552H148.138V32.8242H145.861V35.2632H144.466V28.9632H148.489V30.2682ZM152.346 35.2632L150.762 32.8782H150.492V35.2632H149.097V28.9632H151.617C152.301 28.9632 152.829 29.1492 153.201 29.5212C153.573 29.8872 153.759 30.3582 153.759 30.9342C153.759 31.4082 153.633 31.8132 153.381 32.1492C153.129 32.4792 152.766 32.6982 152.292 32.8062L154.092 35.2632H152.346ZM150.492 30.2322V31.7082H151.41C151.992 31.7082 152.283 31.4622 152.283 30.9702C152.283 30.7362 152.205 30.5562 152.049 30.4302C151.899 30.2982 151.686 30.2322 151.41 30.2322H150.492ZM155.044 29.7462C155.68 29.1342 156.472 28.8282 157.42 28.8282C158.368 28.8282 159.157 29.1342 159.787 29.7462C160.423 30.3522 160.741 31.1412 160.741 32.1132C160.741 33.0852 160.423 33.8772 159.787 34.4892C159.157 35.0952 158.368 35.3982 157.42 35.3982C156.472 35.3982 155.68 35.0952 155.044 34.4892C154.414 33.8772 154.099 33.0852 154.099 32.1132C154.099 31.1412 154.414 30.3522 155.044 29.7462ZM158.698 30.7722C158.362 30.4362 157.936 30.2682 157.42 30.2682C156.904 30.2682 156.478 30.4362 156.142 30.7722C155.806 31.1082 155.638 31.5552 155.638 32.1132C155.638 32.6712 155.806 33.1182 156.142 33.4542C156.478 33.7902 156.904 33.9582 157.42 33.9582C157.936 33.9582 158.362 33.7902 158.698 33.4542C159.034 33.1182 159.202 32.6712 159.202 32.1132C159.202 31.5552 159.034 31.1082 158.698 30.7722ZM167.225 28.9632L168.827 35.2632H167.378L166.523 31.6362H166.505L165.335 34.3632H164.336L163.175 31.6362H163.157L162.302 35.2632H160.844L162.455 28.9632H163.508L164.831 32.2212H164.849L166.172 28.9632H167.225ZM175.59 28.9632V30.2682H173.934V35.2632H172.539V30.2682H170.874V28.9632H175.59ZM181.486 28.9632V32.7162C181.486 33.5502 181.258 34.2042 180.802 34.6782C180.346 35.1462 179.683 35.3802 178.813 35.3802C177.937 35.3802 177.271 35.1462 176.815 34.6782C176.359 34.2042 176.131 33.5502 176.131 32.7162V28.9632H177.616V32.5902C177.616 32.9982 177.718 33.3252 177.922 33.5712C178.132 33.8172 178.429 33.9402 178.813 33.9402C179.197 33.9402 179.491 33.8172 179.695 33.5712C179.905 33.3252 180.01 32.9982 180.01 32.5902V28.9632H181.486ZM185.789 35.2632L184.205 32.8782H183.935V35.2632H182.54V28.9632H185.06C185.744 28.9632 186.272 29.1492 186.644 29.5212C187.016 29.8872 187.202 30.3582 187.202 30.9342C187.202 31.4082 187.076 31.8132 186.824 32.1492C186.572 32.4792 186.209 32.6982 185.735 32.8062L187.535 35.2632H185.789ZM183.935 30.2322V31.7082H184.853C185.435 31.7082 185.726 31.4622 185.726 30.9702C185.726 30.7362 185.648 30.5562 185.492 30.4302C185.342 30.2982 185.129 30.2322 184.853 30.2322H183.935ZM194.08 35.2632H192.091L189.49 32.2482V35.2632H188.095V28.9632H189.49V31.7442L191.731 28.9632H193.63L191.029 31.9152L194.08 35.2632ZM195.923 33.9582H198.47V35.2632H194.528V28.9632H198.425V30.2682H195.923V31.2582H198.173V32.5272H195.923V33.9582ZM204.683 28.9632L202.415 32.9862V35.2632H201.02V33.0042L198.752 28.9632H200.426L201.704 31.6002H201.722L203.009 28.9632H204.683Z" fill="#E30613"/>
</svg>
