<svg width="15" height="15" viewBox="0 0 15 15" fill="none" xmlns="http://www.w3.org/2000/svg">
<path d="M14.4844 6.98285C14.8281 7.37655 15 7.84214 15 8.3797C15 8.86718 14.8217 9.289 14.4661 9.64543C14.1099 10.0018 13.6881 10.1799 13.2006 10.1799H10.6039C10.6288 10.2674 10.6538 10.3424 10.6788 10.4049C10.7035 10.4674 10.7383 10.5362 10.7818 10.6112C10.8254 10.6862 10.8568 10.7425 10.8755 10.78C10.9879 10.9923 11.074 11.1675 11.1335 11.3048C11.1928 11.4425 11.2519 11.6299 11.3114 11.8674C11.3709 12.1048 11.4005 12.3424 11.4005 12.5799C11.4005 12.7298 11.3987 12.8518 11.3957 12.9455C11.3928 13.0392 11.3768 13.1799 11.349 13.3674C11.3207 13.5549 11.2831 13.7111 11.2363 13.8361C11.1894 13.961 11.1143 14.1018 11.0114 14.2579C10.9082 14.4144 10.7833 14.5407 10.6363 14.6377C10.4893 14.7345 10.3019 14.8158 10.0737 14.8813C9.8454 14.947 9.58774 14.9798 9.30006 14.9798C9.13759 14.9798 8.99708 14.9204 8.87822 14.8016C8.75324 14.6766 8.64682 14.5204 8.55941 14.333C8.47187 14.1455 8.41089 13.983 8.37648 13.8454C8.3421 13.7079 8.30299 13.5172 8.25942 13.2736C8.20297 13.0109 8.16098 12.822 8.13267 12.7064C8.1046 12.5908 8.04976 12.4392 7.96859 12.2518C7.88725 12.0642 7.79049 11.9143 7.67796 11.8017C7.47175 11.5955 7.15616 11.2205 6.73106 10.6768C6.42473 10.2768 6.10915 9.89873 5.78417 9.54246C5.45912 9.18612 5.22165 9.00178 5.07169 8.98927C4.91555 8.97679 4.78115 8.91273 4.66863 8.79704C4.5561 8.68143 4.49985 8.54545 4.49985 8.38925V2.37992C4.49985 2.21741 4.55918 2.07841 4.67795 1.9628C4.79665 1.84705 4.93729 1.78614 5.0998 1.77987C5.31852 1.7736 5.81227 1.63624 6.58107 1.36725C7.06225 1.205 7.43875 1.08138 7.71063 0.997121C7.98245 0.912863 8.36239 0.822169 8.84952 0.725171C9.3371 0.628338 9.78702 0.579773 10.1994 0.579773H10.3588H11.0714H11.4088C12.2402 0.592251 12.8556 0.836092 13.2557 1.31097C13.6181 1.74227 13.7712 2.30791 13.7151 3.00791C13.9588 3.23914 14.1277 3.53276 14.2213 3.8891C14.3274 4.27013 14.3274 4.63579 14.2213 4.98572C14.5088 5.36698 14.6432 5.7951 14.6243 6.27011C14.6251 6.47031 14.5783 6.70775 14.4844 6.98285Z" fill="#919191"/>
<path d="M3.30003 8.97968H0.600112C0.437508 8.97968 0.296871 8.92028 0.178136 8.80151C0.0594005 8.68281 0 8.54217 0 8.37967V2.37945C0 2.21717 0.0594005 2.07647 0.178169 1.9576C0.297002 1.83903 0.437639 1.7796 0.600145 1.7796H3.30003C3.4625 1.7796 3.60307 1.83903 3.72187 1.9576C3.84061 2.07647 3.89997 2.21714 3.89997 2.37945V8.37967C3.89997 8.54217 3.84057 8.68278 3.72187 8.80151C3.6031 8.92032 3.46253 8.97968 3.30003 8.97968Z" fill="#919191"/>
</svg>
