<svg width="21" height="21" viewBox="0 0 26 26" fill="none" xmlns="http://www.w3.org/2000/svg">
<path d="M22.0983 5.571L24.098 8.929C24.2937 9.25799 24.3658 9.64255 24.302 10.0172C24.2382 10.3919 24.0424 10.7336 23.7481 10.9842L23.0642 11.5653C22.6418 11.1851 22.1802 10.8453 21.6861 10.552L22.6296 9.75043L20.63 6.39243L17.7093 7.35021C17.0305 6.79553 16.258 6.35868 15.4258 6.05893L14.8242 3.14286H10.8249L10.2234 6.05893C9.38506 6.35444 8.60652 6.78978 7.92292 7.34529L5.0192 6.39243L3.01956 9.75043L5.32254 11.7128C5.1685 12.563 5.1705 13.4328 5.32847 14.2823L3.01956 16.2496L5.0192 19.6076L7.93987 18.6498C8.15337 18.8243 8.37616 18.9871 8.60716 19.1377C8.98757 21.3289 10.2419 23.2325 12.0107 24.5H10.8249C10.433 24.5002 10.0532 24.3686 9.75009 24.1278C9.44698 23.8869 9.23934 23.5517 9.16253 23.1791L8.73633 21.1108C8.3514 20.9281 7.97996 20.7197 7.62467 20.4873L5.56233 21.1642C5.19109 21.2864 4.78761 21.2799 4.42076 21.1458C4.05391 21.0118 3.74644 20.7584 3.55082 20.429L1.55118 17.071C1.35549 16.742 1.28341 16.3575 1.34721 15.9828C1.41101 15.6081 1.60675 15.2664 1.90112 15.0158L3.52795 13.6292C3.51269 13.4214 3.50422 13.2119 3.50422 13C3.50422 12.8246 3.5167 12.652 3.52922 12.4789L3.53642 12.3782L1.90027 10.9842C1.60617 10.7334 1.41077 10.3916 1.34728 10.0169C1.28379 9.64225 1.35614 9.25781 1.55203 8.929L3.55167 5.571C3.74735 5.24211 4.0546 4.98917 4.42107 4.85527C4.78754 4.72137 5.19056 4.71478 5.56148 4.83664L7.61196 5.50857C7.97148 5.27734 8.34719 5.07066 8.73633 4.89004L9.16253 2.82086C9.23934 2.44829 9.44698 2.11306 9.75009 1.87222C10.0532 1.63139 10.433 1.49985 10.8249 1.5H14.8242C15.2161 1.49985 15.596 1.63139 15.8991 1.87222C16.2022 2.11306 16.4098 2.44829 16.4866 2.82086L16.9128 4.89004C17.2977 5.07266 17.6691 5.2807 18.0245 5.51268L20.0868 4.83664C20.458 4.71436 20.8614 4.72072 21.2282 4.85464C21.5951 4.98857 21.9026 5.24176 22.0983 5.571Z" fill="#2F76FF"/>
<path d="M16.258 9.36519C15.8233 8.9793 15.3204 8.66756 14.7701 8.4466C13.8412 8.07356 12.819 7.97596 11.8328 8.16613C10.8467 8.3563 9.94082 8.8257 9.22983 9.51498C8.51885 10.2042 8.03466 11.0824 7.8385 12.0385C7.64233 12.9945 7.74301 13.9855 8.1278 14.8861C8.27849 15.2388 8.47012 15.5714 8.69773 15.8782C8.87124 15.1301 9.14756 14.4197 9.51156 13.7617C9.45511 13.5123 9.4294 13.2566 9.43542 13C9.42523 12.5658 9.50593 12.1341 9.67264 11.731C9.83936 11.3279 10.0886 10.9617 10.4054 10.6546C10.7222 10.3475 11.0999 10.1059 11.5157 9.94426C11.9315 9.78264 12.3768 9.70441 12.8246 9.71429C13.2253 9.70545 13.6239 9.76712 14.0012 9.89593C14.7125 9.62596 15.4696 9.4444 16.258 9.36519Z" fill="#2F76FF"/>
<path fill-rule="evenodd" clip-rule="evenodd" d="M17.3246 24.8999C21.1906 24.8999 24.3246 21.7659 24.3246 17.8999C24.3246 14.0339 21.1906 10.8999 17.3246 10.8999C13.4586 10.8999 10.3246 14.0339 10.3246 17.8999C10.3246 21.7659 13.4586 24.8999 17.3246 24.8999ZM11.7938 16.4182C11.6683 16.8892 11.6014 17.3841 11.6014 17.8947C11.6014 18.4052 11.6683 18.9001 11.7938 19.3711H13.989C13.9335 18.9024 13.9018 18.4094 13.9018 17.8947C13.9018 17.3799 13.9335 16.887 13.989 16.4182H11.7938ZM12.508 14.8036H14.2872C14.4751 14.0592 14.711 13.4065 14.9467 12.8604C14.9779 12.7882 15.0091 12.7177 15.0402 12.6491C13.998 13.1025 13.1172 13.8574 12.508 14.8036ZM17.1153 12.1805C17.0951 12.2127 17.0737 12.2474 17.0511 12.2846C16.884 12.5603 16.6571 12.9719 16.429 13.5003C16.2657 13.8787 16.1024 14.3154 15.9601 14.8036H18.6781C18.5358 14.3154 18.3725 13.8787 18.2092 13.5003C17.9811 12.9719 17.7541 12.5603 17.5871 12.2846C17.5645 12.2474 17.5431 12.2127 17.5229 12.1805C17.4552 12.1782 17.3873 12.177 17.3191 12.177C17.2509 12.177 17.1829 12.1782 17.1153 12.1805ZM19.598 12.6491C19.6291 12.7177 19.6603 12.7882 19.6915 12.8604C19.9272 13.4065 20.1631 14.0592 20.3509 14.8036H22.1301C21.5209 13.8574 20.6402 13.1025 19.598 12.6491ZM22.8444 16.4182H20.6492C20.7047 16.887 20.7364 17.3799 20.7364 17.8947C20.7364 18.4094 20.7047 18.9024 20.6492 19.3711H22.8444C22.9699 18.9001 23.0368 18.4052 23.0368 17.8947C23.0368 17.3841 22.9699 16.8892 22.8444 16.4182ZM22.1301 20.9857H20.3509C20.1631 21.7301 19.9272 22.3829 19.6915 22.9289C19.6603 23.0012 19.6291 23.0716 19.598 23.1402C20.6402 22.6868 21.5209 21.932 22.1301 20.9857ZM17.5229 23.6088C17.5431 23.5767 17.5645 23.5419 17.5871 23.5047C17.7541 23.2291 17.9811 22.8174 18.2092 22.289C18.3725 21.9106 18.5358 21.4739 18.6781 20.9857H15.9601C16.1024 21.4739 16.2657 21.9106 16.429 22.289C16.6571 22.8174 16.884 23.2291 17.0511 23.5047C17.0737 23.5419 17.0951 23.5767 17.1153 23.6088C17.1829 23.6112 17.2509 23.6124 17.3191 23.6124C17.3873 23.6124 17.4552 23.6112 17.5229 23.6088ZM15.0402 23.1402C15.0091 23.0716 14.9779 23.0012 14.9467 22.9289C14.711 22.3829 14.4751 21.7301 14.2872 20.9857H12.508C13.1172 21.932 13.998 22.6868 15.0402 23.1402ZM19.0217 19.3711C19.0849 18.9062 19.1218 18.4129 19.1218 17.8947C19.1218 17.3764 19.0849 16.8831 19.0217 16.4182H15.6165C15.5532 16.8831 15.5164 17.3764 15.5164 17.8947C15.5164 18.4129 15.5532 18.9062 15.6165 19.3711H19.0217Z" fill="#2F76FF"/>
</svg>
