<svg width="150" height="30" viewBox="0 0 150 30" fill="none" xmlns="http://www.w3.org/2000/svg">
<path d="M50.2039 4.27059H40.82L43.2585 0.0529785H68.4678L66.0293 4.27059H56.6578L47.4792 20.1613H41.0284L50.2039 4.27059Z" fill="#164194"/>
<path d="M71.1145 0.0529785H77.5654L70.9124 11.3248C70.5642 11.9019 70.2525 12.5003 69.9793 13.1164C69.7732 13.5425 69.6558 14.0059 69.634 14.4787C69.6255 14.698 69.6773 14.9154 69.7836 15.1073C69.89 15.2992 70.047 15.4583 70.2374 15.5673C70.6376 15.8162 71.3063 15.9406 72.2436 15.9406H75.2575C75.9962 15.9506 76.7346 15.9027 77.4658 15.7975C78.0127 15.7198 78.5402 15.5405 79.021 15.2687C79.4844 14.9917 79.8968 14.6371 80.2403 14.2205C80.6839 13.6809 81.0823 13.1056 81.4315 12.5005L88.8963 0.0591958H95.3503L87.2323 13.5954C86.5649 14.733 85.8022 15.812 84.9524 16.8208C84.2724 17.6283 83.458 18.3123 82.545 18.8425C81.6282 19.3572 80.628 19.7067 79.5902 19.8751C78.3059 20.0824 77.0062 20.1791 75.7054 20.1644H69.0773C67.1862 20.1644 65.686 19.8098 64.5766 19.1007C63.4673 18.3915 62.9095 17.3288 62.9033 15.9126C62.919 15.17 63.0545 14.4348 63.3045 13.7353C63.6344 12.8136 64.051 11.9253 64.5486 11.0822L71.1145 0.0529785Z" fill="#164194"/>
<path d="M125.011 0.0529785H131.465L126.734 8.25493L140.662 0.0529785H149.321L133.548 9.20047L141.072 20.1613H134.102L128.684 12.0433L122.463 15.6295L119.851 20.1613H113.425L125.011 0.0529785Z" fill="#164194"/>
<path d="M9.37766 9.4711H0L2.4385 5.25659H27.6322L25.1968 9.4711H15.8316L6.653 25.3587H0.202175L9.37766 9.4711Z" fill="#164194"/>
<path d="M35.716 8.146L36.8389 10.4165L39.3427 10.7804L37.5294 12.5471L37.9586 15.0385L35.716 13.8628L33.4766 15.0385L33.9058 12.5471L32.0925 10.7804L34.5963 10.4165L35.716 8.146Z" fill="#E30613"/>
<path d="M22.021 4.21451H12.6434L15.0788 0H40.288L37.8495 4.21451H28.4719L19.2964 20.1021H12.8424L22.021 4.21451Z" fill="#164194"/>
<path d="M117.132 1.02962C115.994 0.378522 114.383 0.0529785 112.299 0.0529785H98.6722L87.0894 20.1613H93.4935L102.691 4.2737H110.607C111.014 4.23986 111.422 4.32409 111.782 4.51631C111.893 4.59 111.982 4.69071 112.043 4.80885C112.103 4.92699 112.132 5.05863 112.128 5.19125C112.118 5.45803 112.059 5.72073 111.953 5.96572C111.816 6.28898 111.654 6.60098 111.468 6.89882L110.803 8.03098C110.578 8.41529 110.303 8.76781 109.985 9.07916C109.715 9.33383 109.398 9.5335 109.051 9.66702C108.652 9.81099 108.232 9.89281 107.807 9.90963C107.338 9.94073 106.778 9.95317 106.131 9.95317H103.151C102.529 9.95317 102.007 9.97183 101.559 10.0123L101.055 10.062L98.7033 14.2361C99.1226 14.1896 99.5443 14.1677 99.9661 14.1708H103.027L106.019 20.1613H112.551L109.44 13.9406C110.279 13.8292 111.105 13.6364 111.907 13.3652C112.574 13.1376 113.214 12.835 113.813 12.4632C114.368 12.1164 114.87 11.691 115.303 11.2004C115.76 10.6799 116.168 10.1188 116.522 9.52394L117.586 7.68884C118.426 6.25394 118.846 5.00152 118.846 3.93157C118.865 3.33502 118.715 2.74525 118.411 2.23131C118.108 1.71738 117.664 1.30055 117.132 1.02962Z" fill="#164194"/>
<path d="M54.7809 25.4834C55.4583 25.5971 55.797 26.0044 55.797 26.7055C55.797 27.1839 55.6383 27.5368 55.3209 27.7642C55.0035 27.9915 54.5985 28.1052 54.1059 28.1052H51.9743V23.1315H54.0348C54.4991 23.1315 54.8709 23.2358 55.1504 23.4442C55.4298 23.6479 55.5696 23.9558 55.5696 24.3679C55.5696 24.9315 55.3067 25.2986 54.7809 25.4692V25.4834ZM53.907 24.1334H53.0756V25.1068H53.8998C54.0704 25.1068 54.2054 25.0642 54.3048 24.9789C54.4091 24.8889 54.4612 24.7658 54.4612 24.6094C54.4612 24.4626 54.4091 24.3465 54.3048 24.2613C54.2054 24.176 54.0727 24.1334 53.907 24.1334ZM53.9425 27.1034C54.1604 27.1034 54.3333 27.0584 54.4612 26.9684C54.5891 26.8736 54.653 26.7386 54.653 26.5634C54.653 26.2034 54.4138 26.0234 53.9354 26.0234H53.0756V27.1034H53.9425ZM60.6001 23.1315V26.0944C60.6001 26.7529 60.4201 27.2692 60.0601 27.6434C59.7001 28.0129 59.1767 28.1976 58.4898 28.1976C57.7983 28.1976 57.2725 28.0129 56.9125 27.6434C56.5525 27.2692 56.3725 26.7529 56.3725 26.0944V23.1315H57.5448V25.995C57.5448 26.3171 57.6254 26.5752 57.7864 26.7694C57.9522 26.9636 58.1867 27.0608 58.4898 27.0608C58.793 27.0608 59.0251 26.9636 59.1862 26.7694C59.352 26.5752 59.4348 26.3171 59.4348 25.995V23.1315H60.6001ZM65.6114 23.1315L63.8209 26.3076V28.1052H62.7195V26.3218L60.929 23.1315H62.2506L63.2595 25.2134H63.2737L64.2898 23.1315H65.6114ZM72.4793 25.2276C72.4841 25.2844 72.4864 25.3697 72.4864 25.4834C72.4864 26.3029 72.2804 26.9636 71.8683 27.4658C71.4609 27.9631 70.8546 28.2118 70.0493 28.2118C69.2678 28.2118 68.633 27.9773 68.1451 27.5084C67.6572 27.0347 67.4133 26.4 67.4133 25.6042C67.4133 24.8273 67.6549 24.2044 68.138 23.7355C68.6259 23.2618 69.2891 23.025 70.1275 23.025C70.8712 23.025 71.5249 23.2429 72.0885 23.6786L71.3709 24.6236C70.9635 24.3158 70.5396 24.1618 70.0991 24.1618C69.6396 24.1618 69.2796 24.2968 69.0191 24.5668C68.7585 24.8368 68.6283 25.185 68.6283 25.6113C68.6283 26.0471 68.7609 26.4 69.0262 26.67C69.2914 26.94 69.6585 27.075 70.1275 27.075C70.497 27.075 70.7788 26.9897 70.973 26.8192C71.172 26.6486 71.288 26.4473 71.3212 26.2152H70.0422V25.2276H72.4793ZM73.4952 23.7497C73.9973 23.2665 74.6226 23.025 75.371 23.025C76.1194 23.025 76.7423 23.2665 77.2397 23.7497C77.7418 24.2281 77.9929 24.851 77.9929 25.6184C77.9929 26.3858 77.7418 27.011 77.2397 27.4942C76.7423 27.9726 76.1194 28.2118 75.371 28.2118C74.6226 28.2118 73.9973 27.9726 73.4952 27.4942C72.9979 27.011 72.7492 26.3858 72.7492 25.6184C72.7492 24.851 72.9979 24.2281 73.4952 23.7497ZM76.38 24.5597C76.1147 24.2944 75.7784 24.1618 75.371 24.1618C74.9636 24.1618 74.6273 24.2944 74.3621 24.5597C74.0968 24.825 73.9642 25.1779 73.9642 25.6184C73.9642 26.0589 74.0968 26.4118 74.3621 26.6771C74.6273 26.9423 74.9636 27.075 75.371 27.075C75.7784 27.075 76.1147 26.9423 76.38 26.6771C76.6452 26.4118 76.7779 26.0589 76.7779 25.6184C76.7779 25.1779 76.6452 24.825 76.38 24.5597ZM79.0393 23.7497C79.5414 23.2665 80.1666 23.025 80.9151 23.025C81.6635 23.025 82.2864 23.2665 82.7837 23.7497C83.2858 24.2281 83.5369 24.851 83.5369 25.6184C83.5369 26.3858 83.2858 27.011 82.7837 27.4942C82.2864 27.9726 81.6635 28.2118 80.9151 28.2118C80.1666 28.2118 79.5414 27.9726 79.0393 27.4942C78.5419 27.011 78.2932 26.3858 78.2932 25.6184C78.2932 24.851 78.5419 24.2281 79.0393 23.7497ZM81.924 24.5597C81.6587 24.2944 81.3224 24.1618 80.9151 24.1618C80.5077 24.1618 80.1714 24.2944 79.9061 24.5597C79.6408 24.825 79.5082 25.1779 79.5082 25.6184C79.5082 26.0589 79.6408 26.4118 79.9061 26.6771C80.1714 26.9423 80.5077 27.075 80.9151 27.075C81.3224 27.075 81.6587 26.9423 81.924 26.6771C82.1893 26.4118 82.3219 26.0589 82.3219 25.6184C82.3219 25.1779 82.1893 24.825 81.924 24.5597ZM85.7059 23.1315C86.5017 23.1315 87.1483 23.3565 87.6457 23.8065C88.1431 24.2518 88.3917 24.8558 88.3917 25.6184C88.3917 26.381 88.1431 26.9873 87.6457 27.4373C87.1483 27.8826 86.5017 28.1052 85.7059 28.1052H84.1215V23.1315H85.7059ZM85.7983 24.1334H85.2228V27.1034H85.7983C86.2104 27.1034 86.5467 26.9731 86.8073 26.7126C87.0725 26.4473 87.2052 26.0826 87.2052 25.6184C87.2052 25.1542 87.0725 24.7918 86.8073 24.5313C86.5467 24.266 86.2104 24.1334 85.7983 24.1334ZM89.2095 23.3802C89.4795 23.1434 89.8726 23.025 90.3889 23.025C90.9052 23.025 91.4429 23.1458 92.0018 23.3873L91.54 24.3608C91.0947 24.1523 90.7205 24.0481 90.4174 24.0481C90.1142 24.0481 89.9626 24.1452 89.9626 24.3394C89.9626 24.4152 89.9887 24.4839 90.0408 24.5455C90.0976 24.6023 90.1971 24.6734 90.3392 24.7586L91.1634 25.2773C91.4808 25.4715 91.7176 25.68 91.8739 25.9026C92.0302 26.1252 92.1084 26.4023 92.1084 26.7339C92.1084 27.2123 91.9521 27.5794 91.6395 27.8352C91.3268 28.0863 90.8792 28.2118 90.2966 28.2118C89.6287 28.2118 89.0105 28.046 88.4421 27.7144L88.9395 26.7268C89.4368 27.03 89.9034 27.1815 90.3392 27.1815C90.7466 27.1815 90.9502 27.0489 90.9502 26.7836C90.9502 26.6794 90.9124 26.5894 90.8366 26.5136C90.7608 26.4379 90.6424 26.3502 90.4813 26.2508L89.721 25.7747C89.11 25.41 88.8045 24.9363 88.8045 24.3536C88.8045 23.9415 88.9395 23.6171 89.2095 23.3802ZM97.7403 24.1618H95.6656V25.1779H97.4632V26.1797H95.6656V28.1052H94.5643V23.1315H97.7403V24.1618ZM100.786 28.1052L99.5355 26.2223H99.3223V28.1052H98.221V23.1315H100.21C100.75 23.1315 101.167 23.2784 101.461 23.5721C101.755 23.861 101.902 24.2329 101.902 24.6876C101.902 25.0618 101.802 25.3815 101.603 25.6468C101.404 25.9073 101.118 26.0802 100.743 26.1655L102.164 28.1052H100.786ZM99.3223 24.1334V25.2986H100.047C100.507 25.2986 100.736 25.1044 100.736 24.716C100.736 24.5313 100.675 24.3892 100.552 24.2897C100.433 24.1855 100.265 24.1334 100.047 24.1334H99.3223ZM102.915 23.7497C103.418 23.2665 104.043 23.025 104.791 23.025C105.54 23.025 106.163 23.2665 106.66 23.7497C107.162 24.2281 107.413 24.851 107.413 25.6184C107.413 26.3858 107.162 27.011 106.66 27.4942C106.163 27.9726 105.54 28.2118 104.791 28.2118C104.043 28.2118 103.418 27.9726 102.915 27.4942C102.418 27.011 102.169 26.3858 102.169 25.6184C102.169 24.851 102.418 24.2281 102.915 23.7497ZM105.8 24.5597C105.535 24.2944 105.199 24.1618 104.791 24.1618C104.384 24.1618 104.048 24.2944 103.782 24.5597C103.517 24.825 103.384 25.1779 103.384 25.6184C103.384 26.0589 103.517 26.4118 103.782 26.6771C104.048 26.9423 104.384 27.075 104.791 27.075C105.199 27.075 105.535 26.9423 105.8 26.6771C106.065 26.4118 106.198 26.0589 106.198 25.6184C106.198 25.1779 106.065 24.825 105.8 24.5597ZM112.532 23.1315L113.797 28.1052H112.653L111.978 25.2418H111.964L111.04 27.3947H110.252L109.335 25.2418H109.321L108.646 28.1052H107.495L108.767 23.1315H109.598L110.642 25.7036H110.657L111.701 23.1315H112.532ZM119.136 23.1315V24.1618H117.829V28.1052H116.727V24.1618H115.413V23.1315H119.136ZM123.791 23.1315V26.0944C123.791 26.7529 123.611 27.2692 123.251 27.6434C122.891 28.0129 122.368 28.1976 121.681 28.1976C120.989 28.1976 120.464 28.0129 120.104 27.6434C119.744 27.2692 119.564 26.7529 119.564 26.0944V23.1315H120.736V25.995C120.736 26.3171 120.816 26.5752 120.977 26.7694C121.143 26.9636 121.378 27.0608 121.681 27.0608C121.984 27.0608 122.216 26.9636 122.377 26.7694C122.543 26.5752 122.626 26.3171 122.626 25.995V23.1315H123.791ZM127.188 28.1052L125.937 26.2223H125.724V28.1052H124.623V23.1315H126.612C127.152 23.1315 127.569 23.2784 127.863 23.5721C128.157 23.861 128.303 24.2329 128.303 24.6876C128.303 25.0618 128.204 25.3815 128.005 25.6468C127.806 25.9073 127.519 26.0802 127.145 26.1655L128.566 28.1052H127.188ZM125.724 24.1334V25.2986H126.449C126.908 25.2986 127.138 25.1044 127.138 24.716C127.138 24.5313 127.077 24.3892 126.953 24.2897C126.835 24.1855 126.667 24.1334 126.449 24.1334H125.724ZM133.733 28.1052H132.163L130.109 25.725V28.1052H129.008V23.1315H130.109V25.3271L131.879 23.1315H133.378L131.324 25.4621L133.733 28.1052ZM135.189 27.075H137.199V28.1052H134.087V23.1315H137.164V24.1618H135.189V24.9434H136.965V25.9452H135.189V27.075ZM142.104 23.1315L140.313 26.3076V28.1052H139.212V26.3218L137.422 23.1315H138.743L139.752 25.2134H139.766L140.782 23.1315H142.104Z" fill="#E30613"/>
</svg>
